<?xml version="1.0" encoding="UTF-8"?>
<!DOCTYPE svg PUBLIC "-//W3C//DTD SVG 1.1//EN" "http://www.w3.org/Graphics/SVG/1.1/DTD/svg11.dtd">
<svg xmlns="http://www.w3.org/2000/svg" version="1.1" viewBox="0 0 200 200" width="32" height="32" style="fill-rule:evenodd; clip-rule:evenodd" xmlns:xlink="http://www.w3.org/1999/xlink">
<style>
  path { fill: #111111; }
  @media (prefers-color-scheme: dark) {
    path { fill: #ffffff; }
  }
</style>
<g><path style="opacity:1" d="M 69.5,21.5 C 101.835,21.3334 134.168,21.5 166.5,22C 180.321,25.4826 186.821,34.3159 186,48.5C 184.456,58.3756 178.956,64.8756 169.5,68C 136.833,68.3333 104.167,68.6667 71.5,69C 46.5819,73.9771 35.7486,89.1438 39,114.5C 22.9733,99.4072 17.64,81.0739 23,59.5C 31.2206,37.7672 46.7206,25.1005 69.5,21.5 Z"/></g>
<g><path style="opacity:1" d="M 167.5,94.5 C 171.099,96.2629 173.932,98.9295 176,102.5C 190.665,125.526 189.665,147.859 173,169.5C 162.984,179.758 150.817,185.591 136.5,187C 104.5,187.667 72.5,187.667 40.5,187C 23.7072,181.582 17.8738,170.415 23,153.5C 25.986,147.18 30.8193,143.013 37.5,141C 70.5,140.667 103.5,140.333 136.5,140C 160.873,134.426 171.206,119.26 167.5,94.5 Z"/></g>
</svg>
